<svg width="18" height="18" viewBox="0 0 18 18" fill="none" xmlns="http://www.w3.org/2000/svg">
<path fill-rule="evenodd" clip-rule="evenodd" d="M6.1875 3C6.1875 1.86091 7.11091 0.9375 8.25 0.9375H9.75C10.8891 0.9375 11.8125 1.86091 11.8125 3V3.49943C13.2603 4.24735 14.25 5.75809 14.25 7.5V10.8922C12.294 10.1458 10.661 9.75 9 9.75C7.33901 9.75 5.706 10.1458 3.75 10.8922V7.5C3.75 5.75809 4.73972 4.24735 6.1875 3.49943V3ZM10.6875 3V3.0978C10.3851 3.03371 10.0715 3 9.75 3H8.25C7.92851 3 7.6149 3.03371 7.3125 3.0978V3C7.3125 2.48223 7.73223 2.0625 8.25 2.0625H9.75C10.2678 2.0625 10.6875 2.48223 10.6875 3ZM9 11.25C10.5441 11.25 12.1217 11.6481 14.25 12.5033V13.5C14.25 15.1569 12.9069 16.5 11.25 16.5H6.75C5.09315 16.5 3.75 15.1569 3.75 13.5V12.5033C5.8783 11.6481 7.4559 11.25 9 11.25ZM8.25 6C7.83579 6 7.5 6.33579 7.5 6.75C7.5 7.16421 7.83579 7.5 8.25 7.5H9.75C10.1642 7.5 10.5 7.16421 10.5 6.75C10.5 6.33579 10.1642 6 9.75 6H8.25ZM1.5 10.5C1.5 9.67157 2.17157 9 3 9V15C2.17157 15 1.5 14.3284 1.5 13.5V10.5ZM15 9C15.8284 9 16.5 9.67157 16.5 10.5V13.5C16.5 14.3284 15.8284 15 15 15V9Z" fill="#8A8F99"/>
</svg>
