<svg width="18" height="18" viewBox="0 0 18 18" fill="none" xmlns="http://www.w3.org/2000/svg">
<path fill-rule="evenodd" clip-rule="evenodd" d="M6.5625 2.8125C6.5625 1.88052 7.31802 1.125 8.25 1.125H9.75C10.682 1.125 11.4375 1.88052 11.4375 2.8125V3.5625H6.5625V2.8125ZM5.4375 3.5625V2.8125C5.4375 1.2592 6.6967 0 8.25 0H9.75C11.3033 0 12.5625 1.2592 12.5625 2.8125V3.5625H13.5C15.1569 3.5625 16.5 4.90565 16.5 6.5625V7.44217C15.9796 7.69285 15.3265 7.99293 14.6027 8.29273C13.2551 8.85093 11.7103 9.38746 10.3329 9.62384C10.0834 9.14188 9.58017 8.8125 9 8.8125C8.41983 8.8125 7.91659 9.14188 7.66708 9.62385C6.28968 9.38747 4.74484 8.85093 3.39723 8.29273C2.67344 7.99293 2.02038 7.69286 1.5 7.44218V6.5625C1.5 4.90565 2.84315 3.5625 4.5 3.5625H5.4375ZM15.0333 9.3321C15.5679 9.11065 16.0645 8.88934 16.5 8.68681V12.5625C16.5 14.2194 15.1569 15.5625 13.5 15.5625H4.5C2.84315 15.5625 1.5 14.2194 1.5 12.5625V8.68682C1.93551 8.88935 2.4321 9.11066 2.96671 9.3321C4.34113 9.9014 6.01619 10.493 7.56384 10.7468C7.75007 11.3635 8.3226 11.8125 9 11.8125C9.6774 11.8125 10.2499 11.3635 10.4362 10.7468C11.9838 10.493 13.6589 9.9014 15.0333 9.3321Z" fill="#8A8F99"/>
</svg>
