<svg width="18" height="18" viewBox="0 0 18 18" fill="none" xmlns="http://www.w3.org/2000/svg">
	<path fill-rule="evenodd" clip-rule="evenodd" d="M14.2501 0.9375C13.9394 0.9375 13.6876 1.18934 13.6876 1.5C13.6876 1.81066 13.9394 2.0625 14.2501 2.0625H15.0845C12.2761 4.30212 10.1391 5.72041 8.1073 6.6628C6.00922 7.63591 3.99654 8.11393 1.42876 8.44204C1.12061 8.48141 0.902722 8.76314 0.942098 9.0713C0.981474 9.37945 1.2632 9.59734 1.57136 9.55796C4.21018 9.22078 6.34442 8.72056 8.58065 7.68337C10.7672 6.66925 13.0253 5.15371 15.9376 2.82083V3.75C15.9376 4.06066 16.1894 4.3125 16.5001 4.3125C16.8107 4.3125 17.0626 4.06066 17.0626 3.75V2.25C17.0626 1.52513 16.4749 0.9375 15.7501 0.9375H14.2501ZM16.5001 7.5C16.5001 6.67157 15.8285 6 15.0001 6C14.1717 6 13.5001 6.67157 13.5001 7.5V15C13.5001 15.8284 14.1717 16.5 15.0001 16.5C15.8285 16.5 16.5001 15.8284 16.5001 15V7.5ZM4.50009 13.5C4.50009 12.6716 3.82852 12 3.00009 12C2.17166 12 1.50009 12.6716 1.50009 13.5L1.50009 15C1.50009 15.8284 2.17166 16.5 3.00009 16.5C3.82852 16.5 4.50009 15.8284 4.50009 15L4.50009 13.5ZM9.00009 9C9.82852 9 10.5001 9.67157 10.5001 10.5V15C10.5001 15.8284 9.82852 16.5 9.00009 16.5C8.17166 16.5 7.50009 15.8284 7.50009 15V10.5C7.50009 9.67157 8.17166 9 9.00009 9Z" fill="#8A8F99" />
</svg>
