<svg width="18" height="18" viewBox="0 0 18 18" fill="none" xmlns="http://www.w3.org/2000/svg">
<path fill-rule="evenodd" clip-rule="evenodd" d="M9 4.14317L9.57378 3.52672C11.1583 1.82443 13.7272 1.82443 15.3117 3.52672C16.5477 4.85472 16.8195 6.82643 16.127 8.4375H12C11.8119 8.4375 11.6363 8.53149 11.532 8.68798L10.5 10.2359L7.96803 6.43798C7.8637 6.28149 7.68807 6.1875 7.5 6.1875C7.31193 6.1875 7.1363 6.28149 7.03197 6.43798L5.69896 8.4375H1.87302C1.18048 6.82643 1.45226 4.85472 2.68835 3.52671C4.27282 1.82443 6.84175 1.82443 8.42621 3.52672L9 4.14317ZM2.57324 9.5625C2.61063 9.60604 2.649 9.64897 2.68835 9.69124L7.85243 15.2393C8.48621 15.9202 9.51379 15.9202 10.1476 15.2393L15.3117 9.69124C15.351 9.64897 15.3894 9.60604 15.4268 9.5625H12.301L10.968 11.562C10.8637 11.7185 10.6881 11.8125 10.5 11.8125C10.3119 11.8125 10.1363 11.7185 10.032 11.562L7.5 7.76406L6.46803 9.31202C6.3637 9.46851 6.18807 9.5625 6 9.5625H2.57324Z" fill="#8A8F99"/>
</svg>
