<svg width="18" height="18" viewBox="0 0 18 18" fill="none" xmlns="http://www.w3.org/2000/svg">
<path fill-rule="evenodd" clip-rule="evenodd" d="M11.7015 3.9375H6.29845C5.42661 2.75986 6.6012 1.1117 8.06026 1.58239L8.75609 1.80686C8.91451 1.85796 9.0854 1.85796 9.24382 1.80686L9.93965 1.58239C11.3987 1.1117 12.5733 2.75986 11.7015 3.9375ZM6.37958 5.0625H11.6203C12.6098 5.61036 13.3828 6.52509 13.7368 7.65776L14.6743 10.6578C15.5798 13.5555 13.415 16.5 10.3791 16.5H7.62081C4.58493 16.5 2.42013 13.5555 3.32565 10.6578L4.26315 7.65776C4.61711 6.52509 5.39012 5.61036 6.37958 5.0625ZM11.5229 13.2418C11.7946 13.091 11.8925 12.7486 11.7418 12.477C11.591 12.2054 11.2486 12.1074 10.977 12.2582C10.1001 12.7449 9.49905 12.9376 8.95504 12.9354C8.41382 12.9332 7.84545 12.7377 7.03331 12.2641C6.76495 12.1076 6.42053 12.1983 6.26403 12.4666C6.10753 12.735 6.19821 13.0794 6.46657 13.2359C7.34522 13.7483 8.11853 14.057 8.95047 14.0604C9.77959 14.0638 10.5831 13.7635 11.5229 13.2418Z" fill="#8A8F99"/>
</svg>
