<svg width="18" height="18" viewBox="0 0 18 18" fill="none" xmlns="http://www.w3.org/2000/svg">
<path fill-rule="evenodd" clip-rule="evenodd" d="M5.25 4.5H12.75C13.5784 4.5 14.25 3.82843 14.25 3C14.25 2.17157 13.5784 1.5 12.75 1.5H5.25C4.42157 1.5 3.75 2.17157 3.75 3C3.75 3.82843 4.42157 4.5 5.25 4.5ZM3.95846 8.49617L4.88995 5.60056C5.00766 5.6167 5.12786 5.62504 5.25 5.62504H12.75C12.8721 5.62504 12.9923 5.6167 13.11 5.60056L14.0415 8.49617C14.4142 9.43722 14.2822 10.4859 13.6857 11.3227L9.7139 16.1446C9.66986 16.2064 9.61878 16.2601 9.5625 16.3058V10.391C10.1122 10.1684 10.5 9.62951 10.5 9C10.5 8.17157 9.82843 7.5 9 7.5C8.17157 7.5 7.5 8.17157 7.5 9C7.5 9.62951 7.88778 10.1684 8.4375 10.391V16.3058C8.38122 16.2601 8.33014 16.2064 8.2861 16.1446L4.31429 11.3227C3.71781 10.4859 3.58579 9.43722 3.95846 8.49617Z" fill="#8A8F99"/>
</svg>
