<svg width="18" height="18" viewBox="0 0 18 18" fill="none" xmlns="http://www.w3.org/2000/svg">
<path fill-rule="evenodd" clip-rule="evenodd" d="M6.79275 1.93938C7.22094 1.51119 7.8646 1.38246 8.42454 1.61303L11.4297 2.85046C12.4195 3.25801 12.6761 4.54128 11.9193 5.29814L9.79796 7.41946C9.04109 8.17632 7.75782 7.91967 7.35028 6.92992L6.69842 5.34684L2.95818 9.08709C2.59206 9.4532 2.59206 10.0468 2.95818 10.4129L8.48277 15.9375H11.2498C11.5604 15.9375 11.8123 16.1893 11.8123 16.5C11.8123 16.8107 11.5604 17.0625 11.2498 17.0625H5.24977C4.93911 17.0625 4.68727 16.8107 4.68727 16.5C4.68727 16.1893 4.93911 15.9375 5.24977 15.9375H6.89178L2.16269 11.2084C1.35723 10.403 1.35723 9.09705 2.16269 8.29159L6.23438 4.21989L6.11284 3.92472C5.88228 3.36478 6.01101 2.72113 6.4392 2.29294L6.79275 1.93938ZM16.3254 6.16054C16.3254 6.4712 16.0735 6.72304 15.7629 6.72304H14.7022C14.3916 6.72304 14.1397 6.4712 14.1397 6.16054C14.1397 5.84988 14.3916 5.59804 14.7022 5.59804H15.7629C16.0735 5.59804 16.3254 5.84988 16.3254 6.16054ZM13.509 7.35393C13.2893 7.13426 12.9332 7.13426 12.7135 7.35393C12.4938 7.5736 12.4938 7.92975 12.7135 8.14942L13.7742 9.21008C13.9938 9.42975 14.35 9.42975 14.5697 9.21008C14.7893 8.99041 14.7893 8.63426 14.5697 8.41459L13.509 7.35393ZM12.2703 9.34259C12.2703 8.92838 11.9345 8.59259 11.5203 8.59259C11.106 8.59259 10.7703 8.92838 10.7703 9.34259V10.4033C10.7703 10.8175 11.106 11.1533 11.5203 11.1533C11.9345 11.1533 12.2703 10.8175 12.2703 10.4033V9.34259Z" fill="#8A8F99"/>
</svg>
