<svg width="18" height="18" viewBox="0 0 18 18" fill="none" xmlns="http://www.w3.org/2000/svg">
<path fill-rule="evenodd" clip-rule="evenodd" d="M5.0625 3C5.0625 2.48223 5.48223 2.0625 6 2.0625H15C15.5178 2.0625 15.9375 2.48223 15.9375 3V7.5C15.9375 8.01777 15.5178 8.4375 15 8.4375H14.25C13.9393 8.4375 13.6875 8.68934 13.6875 9C13.6875 9.31066 13.9393 9.5625 14.25 9.5625H15C16.1391 9.5625 17.0625 8.63909 17.0625 7.5V3C17.0625 1.86091 16.1391 0.9375 15 0.9375H6C4.86091 0.9375 3.9375 1.86091 3.9375 3V4.125C3.9375 4.43566 4.18934 4.6875 4.5 4.6875C4.81066 4.6875 5.0625 4.43566 5.0625 4.125V3ZM5.25 7.5C5.25 8.32843 4.57843 9 3.75 9C2.92157 9 2.25 8.32843 2.25 7.5C2.25 6.67157 2.92157 6 3.75 6C4.57843 6 5.25 6.67157 5.25 7.5ZM13.2232 7.05425C13.3912 6.79292 13.3155 6.4449 13.0542 6.27691C12.7929 6.10891 12.4448 6.18457 12.2768 6.44589L9.35884 10.985C9.05953 10.8861 8.71959 10.9171 8.4321 11.1L6 12.375V12C6 10.7574 4.99264 9.75 3.75 9.75C2.50736 9.75 1.5 10.7574 1.5 12V16.5H6V14.76C6.19755 14.7305 6.39258 14.6609 6.5732 14.548L9.5935 12.9416C9.95533 12.7154 10.139 12.3109 10.1002 11.9122L13.2232 7.05425ZM6.9375 4.5C6.9375 4.18934 7.18934 3.9375 7.5 3.9375H13.5C13.8107 3.9375 14.0625 4.18934 14.0625 4.5C14.0625 4.81066 13.8107 5.0625 13.5 5.0625H7.5C7.18934 5.0625 6.9375 4.81066 6.9375 4.5ZM7.5 6.1875C7.18934 6.1875 6.9375 6.43934 6.9375 6.75C6.9375 7.06066 7.18934 7.3125 7.5 7.3125H10.5C10.8107 7.3125 11.0625 7.06066 11.0625 6.75C11.0625 6.43934 10.8107 6.1875 10.5 6.1875H7.5Z" fill="#8A8F99"/>
</svg>
