<svg width="141" height="17" viewBox="0 0 141 17" fill="none" xmlns="http://www.w3.org/2000/svg">
	<path d="M12.363 8.519C12.363 4.31 9.097 0.768 4.819 0.583999H2.105C1.392 0.583999 0.84 1.136 0.84 1.849V15.212C0.84 15.925 1.392 16.477 2.105 16.477H4.819C9.028 16.293 12.363 12.751 12.363 8.519ZM11.581 8.519C11.581 11.785 9.166 14.89 5.923 15.534C5.624 15.534 5.348 15.465 5.141 15.304C4.934 15.166 4.819 14.936 4.819 14.591V2.47C4.819 2.217 4.911 1.987 5.095 1.78C5.256 1.596 5.486 1.504 5.923 1.527C9.189 2.171 11.581 5.184 11.581 8.519ZM24.5027 1.205C24.3877 0.768 24.0887 0.561 23.6287 0.561H22.4787C22.0647 0.561 21.7657 0.836999 21.6277 1.205L17.3957 15.304C17.3037 15.603 17.3497 15.856 17.5337 16.086C17.6947 16.339 17.9477 16.454 18.2467 16.454H20.5237C20.9377 16.454 21.2597 16.201 21.3977 15.81L22.0187 13.694C22.0877 13.441 22.2257 13.257 22.4327 13.096C22.6397 12.958 22.8697 12.889 23.1227 12.889H26.3197C26.5727 12.889 26.8027 12.958 27.0097 13.096C27.2167 13.257 27.3547 13.441 27.4237 13.694C27.5617 14.154 27.6767 14.568 27.7917 14.913C27.8837 15.235 27.9757 15.534 28.0677 15.787C28.1367 16.04 28.1827 16.201 28.1827 16.224C28.2057 16.247 28.2287 16.316 28.2977 16.385C28.3437 16.477 28.4357 16.523 28.6887 16.5C28.8497 16.431 28.9417 16.339 28.9647 16.224C28.9647 16.109 28.9647 16.04 28.9417 16.017L24.5027 1.205ZM23.1227 12.084C22.9617 12.084 22.8467 12.015 22.7547 11.9C22.6627 11.785 22.6397 11.647 22.6857 11.486L24.2727 6.173C24.3417 5.966 24.5027 5.851 24.7097 5.851C24.9397 5.851 25.1007 5.966 25.1697 6.173L26.7567 11.486C26.8027 11.647 26.7797 11.785 26.6877 11.9C26.5957 12.015 26.4807 12.084 26.3197 12.084H23.1227ZM43.3325 11.233C43.5395 11.118 43.8155 10.865 43.9535 10.681C45.1265 9.508 45.7015 8.151 45.7015 6.495C45.7015 3.321 43.3325 0.836999 40.1585 0.561H35.5125C34.7995 0.561 34.2015 1.159 34.2015 1.872V15.097C34.2015 15.81 34.7765 16.431 35.5125 16.431H36.8695C37.6055 16.431 38.1805 15.81 38.1805 15.097V13.441C38.1805 12.866 38.6175 12.406 39.1925 12.406H40.1585C40.5725 12.383 40.9865 12.314 41.4005 12.199C41.4925 12.176 41.5845 12.153 41.6535 12.153C41.9525 12.153 42.1595 12.268 42.3205 12.521C42.7575 13.188 43.1715 13.809 43.5165 14.338C43.6775 14.568 43.8155 14.798 43.9535 15.005C44.0915 15.235 44.2295 15.442 44.3445 15.626C44.4595 15.81 44.5515 15.948 44.6205 16.063C44.6895 16.178 44.7355 16.224 44.7355 16.247C44.7585 16.27 44.8275 16.316 44.8965 16.362C44.9655 16.431 45.0345 16.454 45.1265 16.454C45.1955 16.454 45.2645 16.431 45.3335 16.385C45.4945 16.27 45.5405 16.155 45.5175 16.04C45.4715 15.925 45.4255 15.856 45.4025 15.833C45.3795 15.81 45.2875 15.649 45.0805 15.327C44.8735 15.028 44.6665 14.66 44.4135 14.269C44.1605 13.878 43.9075 13.51 43.6545 13.119C43.4015 12.728 43.2405 12.475 43.1485 12.314C42.9415 12.015 42.8955 11.762 43.0105 11.601C43.1255 11.44 43.2175 11.302 43.3325 11.233ZM44.9655 6.495C44.9655 9.232 42.8955 11.394 40.1585 11.67H39.1925C38.6405 11.624 38.1805 11.21 38.1805 10.635V2.332C38.1805 1.78 38.6405 1.32 39.1925 1.32L40.1585 1.297C42.8725 1.573 44.9655 3.689 44.9655 6.495ZM63.3206 0.675999C63.2516 0.606999 63.1826 0.583999 63.0906 0.583999C62.9296 0.583999 62.8376 0.653 62.7226 0.768L56.5586 7.231C56.4896 7.323 56.3976 7.369 56.2826 7.369C56.0756 7.369 55.8916 7.185 55.8916 6.978V1.711C55.8916 1.389 55.7766 1.113 55.5696 0.905999C55.3396 0.698999 55.0636 0.583999 54.7646 0.583999H53.0396C52.3956 0.583999 51.9126 1.067 51.9126 1.711V15.35C51.9126 15.649 52.0276 15.925 52.2346 16.132C52.4416 16.362 52.7176 16.477 53.0396 16.477H54.7646C55.3856 16.477 55.8916 15.971 55.8916 15.35V10.083C55.8916 9.83 56.0296 9.692 56.2826 9.692C56.3976 9.692 56.4896 9.738 56.5586 9.83C57.6856 11.026 58.7206 12.107 59.6176 13.05C60.0086 13.464 60.3996 13.855 60.7676 14.246C61.1356 14.637 61.4576 15.005 61.7566 15.304C62.0556 15.603 62.2856 15.856 62.4696 16.04C62.6536 16.247 62.7456 16.339 62.7686 16.362L62.8606 16.408C62.9296 16.454 62.9986 16.477 63.0676 16.477C63.1826 16.477 63.2746 16.431 63.3436 16.362C63.4586 16.247 63.4816 16.132 63.4356 16.017C63.3896 15.902 63.3666 15.856 63.3436 15.833L57.0646 9.186C56.8806 8.979 56.7886 8.772 56.7886 8.519C56.7886 8.266 56.8806 8.059 57.0646 7.875C58.2146 6.656 59.2496 5.552 60.1466 4.586C60.5376 4.172 60.9286 3.758 61.3196 3.367C61.6876 2.976 62.0096 2.631 62.3086 2.309C62.6076 2.01 62.8376 1.757 63.0216 1.55C63.2056 1.366 63.2976 1.274 63.3206 1.274C63.3436 1.228 63.3896 1.136 63.4356 1.021C63.4816 0.905999 63.4356 0.790999 63.3206 0.675999ZM78.5252 16.5C78.7322 16.5 78.9162 16.316 78.9162 16.109C78.9162 15.994 78.8702 15.902 78.8012 15.81C78.7092 15.718 78.6172 15.718 78.5022 15.718H74.2702C73.5342 15.718 72.9592 15.097 72.9592 14.384V1.826C72.9592 1.481 72.8442 1.205 72.6142 0.951999C72.3612 0.721999 72.0852 0.606999 71.7402 0.606999H70.1992C69.5092 0.606999 68.9802 1.136 68.9802 1.826V15.281C68.9802 15.626 69.0952 15.902 69.3482 16.132C69.5782 16.385 69.8542 16.5 70.1992 16.5H78.5252ZM87.2068 16.523C87.9198 16.523 88.4718 15.971 88.4718 15.258V1.895C88.4718 1.182 87.9198 0.629999 87.2068 0.629999H85.7578C85.0448 0.629999 84.4928 1.182 84.4928 1.895V15.258C84.4928 15.971 85.0448 16.523 85.7578 16.523H87.2068ZM99.1639 9.301C99.0489 9.301 98.9339 9.324 98.8649 9.393C98.7729 9.462 98.7269 9.577 98.7269 9.692C98.7039 9.807 98.7499 9.922 98.8419 9.991C98.9109 10.083 99.0259 10.129 99.1409 10.129H101.119C101.487 10.129 101.763 10.405 101.763 10.773V14.476C101.763 14.798 101.648 15.074 101.441 15.281C101.211 15.488 100.935 15.603 100.636 15.603C100.521 15.603 100.429 15.603 100.36 15.58C97.1859 14.752 94.8399 11.785 94.8399 8.473C94.8399 4.471 98.1289 1.136 102.177 1.136C103.143 1.136 104.086 1.32 105.029 1.711C105.075 1.734 105.144 1.757 105.236 1.757C105.397 1.757 105.535 1.688 105.627 1.527C105.696 1.412 105.696 1.297 105.627 1.182C105.558 1.067 105.466 0.997999 105.351 0.975C104.362 0.538 103.304 0.331 102.177 0.331C97.7149 0.331 94.0349 3.942 94.0349 8.473C94.0349 12.728 97.4619 16.431 101.763 16.615H102.177C103.189 16.615 104.523 16.477 105.374 15.902C105.673 15.718 105.834 15.465 105.834 15.166V10.451C105.834 10.152 105.719 9.876 105.512 9.646C105.282 9.416 105.006 9.301 104.684 9.301H99.1639ZM124.092 0.491999C123.977 0.491999 123.885 0.538 123.816 0.606999C123.747 0.698999 123.701 0.790999 123.701 0.905999V6.702C123.701 7.461 123.103 8.059 122.344 8.059H117.905C117.146 8.059 116.548 7.461 116.548 6.702V1.55C116.548 0.975 116.065 0.491999 115.49 0.491999H113.627C113.052 0.491999 112.569 0.975 112.569 1.55V15.35C112.569 15.948 113.029 16.408 113.627 16.408H115.49C116.088 16.408 116.548 15.948 116.548 15.35V10.198C116.548 9.439 117.146 8.841 117.905 8.841H122.344C122.712 8.841 123.034 8.979 123.31 9.232C123.563 9.508 123.701 9.83 123.701 10.198V15.994C123.701 16.224 123.862 16.408 124.092 16.408C124.322 16.408 124.483 16.224 124.483 15.994V0.905999C124.483 0.790999 124.437 0.698999 124.368 0.606999C124.299 0.538 124.207 0.491999 124.092 0.491999ZM130.787 0.606999C130.58 0.606999 130.396 0.790999 130.396 0.997999C130.396 1.228 130.557 1.412 130.787 1.412L132.627 1.389C133.156 1.389 133.57 1.803 133.57 2.332V15.258C133.57 15.603 133.685 15.902 133.938 16.132C134.168 16.385 134.467 16.5 134.812 16.5H136.33C137.02 16.5 137.549 15.948 137.549 15.258V2.332C137.549 1.803 137.963 1.389 138.492 1.389L140.332 1.412C140.585 1.412 140.723 1.251 140.723 0.997999C140.723 0.744999 140.585 0.606999 140.332 0.606999H130.787Z" fill="#2849BD" />
</svg>
